<svg style="width: 100%;height: 100%;" xmlns="http://www.w3.org/2000/svg" viewBox="0 0 24 24"><path d="M3 9.5h1v1.71H3V9.5zm6 0h1v8H9v-8zm-5 0H3a3.5 3.5 0 0 1 7 0H9a2.5 2.5 0 0 0-5 0zm13 8h1a4.5 4.5 0 1 1-9 0h1a3.5 3.5 0 0 0 7 0zm0-6h1v6h-1v-6zM13.5 6h8a.5.5 0 0 1 .5.5v4a1.5 1.5 0 0 1-1.5 1.5h-6a1.5 1.5 0 0 1-1.5-1.5v-4a.5.5 0 0 1 .5-.5zm.5 1v3.5a.5.5 0 0 0 .5.5h6a.5.5 0 0 0 .5-.5V7h-7zm.5-4h6a.5.5 0 0 1 .5.5v3a.5.5 0 0 1-.5.5h-6a.5.5 0 0 1-.5-.5v-3a.5.5 0 0 1 .5-.5zm.5 1v2h5V4h-5zM1.5 14h4a.5.5 0 0 1 .5.5v2a.5.5 0 0 1-.5.5h-4a.5.5 0 0 1-.5-.5v-2a.5.5 0 0 1 .5-.5zm.5 1v1h3v-1H2zm4.5 0h-6a.5.5 0 0 1-.5-.5v-2A1.5 1.5 0 0 1 1.5 11h4A1.5 1.5 0 0 1 7 12.5v2a.5.5 0 0 1-.5.5zM6 12.5a.5.5 0 0 0-.5-.5h-4a.5.5 0 0 0-.5.5V14h5v-1.5zM16 5h1v2h-1V5zm2 0h1v2h-1V5z"></path></svg>