<svg style="width: 100%;height: 100%;" xmlns="http://www.w3.org/2000/svg" viewBox="0 0 24 24"><path fill="#757575" d="M21.5 16a.5.5 0 0 0 .5-.5v-2.65a.5.5 0 0 0-.11-.312l-3.48-4.35A.5.5 0 0 0 18.02 8H14v8h1.17a3.001 3.001 0 0 1 5.66 0h.67zM4 17H2.5A1.5 1.5 0 0 1 1 15.5v-9A1.5 1.5 0 0 1 2.5 5h10A1.5 1.5 0 0 1 14 6.5V7h4.02a1.5 1.5 0 0 1 1.17.563l3.481 4.35a1.5 1.5 0 0 1 .329.938V15.5a1.5 1.5 0 0 1-1.5 1.5H21a3 3 0 1 1-6 0h-5a3 3 0 1 1-6 0zm.17-1a3 3 0 0 1 5.66 0H13V6.5a.5.5 0 0 0-.5-.5h-10a.5.5 0 0 0-.5.5v9a.5.5 0 0 0 .5.5h1.67zM20 17a2 2 0 1 0-4 0 2 2 0 0 0 4 0zM9 17a2 2 0 1 0-4 0 2 2 0 0 0 4 0z"></path></svg>