<svg style="width: 100%;height: 100%;" xmlns="http://www.w3.org/2000/svg" viewBox="0 0 24 24"><path d="M20.94 4.061a2.06 2.06 0 0 1 2.052 1.882l.008.182v5.024c0 .486-.172.955-.481 1.325l-.123.134-9.774 9.787a2.059 2.059 0 0 1-2.914 0 .516.516 0 0 1 .728-.728c.371.372.957.4 1.362.086l.097-.086 9.774-9.788c.16-.161.263-.37.293-.594l.009-.136V6.125a1.034 1.034 0 0 0-.896-1.024l-.136-.01a.515.515 0 0 1 0-1.03zm-9.134 5.804a.374.374 0 0 1 .278.121.375.375 0 0 1 .12.278.395.395 0 0 1-.126.278l-.334.335c.316.41.498.854.544 1.333a.428.428 0 0 1-.124.383.445.445 0 0 1-.266.133c-.103.012-.185-.012-.246-.073a.4.4 0 0 1-.078-.111.907.907 0 0 1-.056-.186 2.885 2.885 0 0 0-.184-.653 1.785 1.785 0 0 0-.388-.546c-.223-.223-.45-.351-.682-.386a.677.677 0 0 0-.606.208.546.546 0 0 0-.175.402c.001.15.04.302.116.457.075.154.186.356.334.604.197.328.345.608.442.842.097.234.134.479.113.734-.022.256-.151.502-.388.74-.288.288-.63.43-1.027.429-.397-.002-.79-.147-1.178-.435l-.34.34a.394.394 0 0 1-.277.127.374.374 0 0 1-.278-.121.375.375 0 0 1-.12-.278.395.395 0 0 1 .126-.278l.329-.33a3.451 3.451 0 0 1-.47-.728 2.424 2.424 0 0 1-.231-.772.385.385 0 0 1 .01-.205.497.497 0 0 1 .12-.173.445.445 0 0 1 .266-.132c.102-.013.182.01.24.067a.367.367 0 0 1 .08.12c.019.042.039.104.06.183.058.273.141.515.25.726.11.21.253.404.43.58.24.241.473.38.697.418.225.038.425-.031.601-.208a.46.46 0 0 0 .146-.361 1.112 1.112 0 0 0-.116-.424 8.525 8.525 0 0 0-.32-.586 6.955 6.955 0 0 1-.45-.866 1.617 1.617 0 0 1-.117-.758c.022-.267.155-.522.4-.767a1.42 1.42 0 0 1 1.056-.432c.413.004.814.15 1.202.438l.34-.34a.394.394 0 0 1 .277-.127zM17.852 2c1.086 0 1.976.842 2.055 1.91l.006.154v5.024c0 .486-.172.955-.482 1.325l-.122.134-9.774 9.787a2.059 2.059 0 0 1-2.783.121l-.131-.12-5.017-5.024a2.066 2.066 0 0 1-.12-2.788l.12-.131 9.774-9.788a2.06 2.06 0 0 1 1.276-.596l.18-.008h5.018zm0 1.03h-5.017a1.03 1.03 0 0 0-.628.213l-.102.09-9.774 9.788c-.372.372-.4.958-.086 1.364l.086.097 5.017 5.024a1.03 1.03 0 0 0 1.362.086l.097-.086 9.774-9.788c.162-.161.264-.37.294-.595l.009-.135V4.064c0-.53-.399-.967-.912-1.027l-.12-.006zM15 5a2 2 0 1 1 0 4 2 2 0 0 1 0-4zm0 1a1 1 0 1 0 0 2 1 1 0 0 0 0-2z"></path></svg>