<svg style="width: 100%;height: 100%;" xmlns="http://www.w3.org/2000/svg" viewBox="0 0 24 24"><path d="M16.5 3a.5.5 0 0 1 .5.5v1.55c.98.2 1.751.97 1.95 1.95h1.55a.5.5 0 1 1 0 1H19v2h1.5a.5.5 0 1 1 0 1H19v2h1.5a.5.5 0 1 1 0 1H19v2h1.5a.5.5 0 1 1 0 1h-1.55c-.199.98-.97 1.751-1.95 1.95v1.55a.5.5 0 1 1-1 0V19h-2v1.5a.5.5 0 1 1-1 0V19h-2v1.5a.5.5 0 1 1-1 0V19H8v1.5a.5.5 0 1 1-1 0v-1.55A2.503 2.503 0 0 1 5.05 17H3.5a.5.5 0 1 1 0-1H5v-2H3.5a.5.5 0 1 1 0-1H5v-2H3.5a.5.5 0 1 1 0-1H5V8H3.5a.5.5 0 0 1 0-1h1.55c.199-.98.97-1.751 1.95-1.95V3.5a.5.5 0 0 1 1 0V5h2V3.5a.5.5 0 1 1 1 0V5h2V3.5a.5.5 0 1 1 1 0V5h2V3.5a.5.5 0 0 1 .5-.5zm0 3h-9A1.5 1.5 0 0 0 6 7.5v9A1.5 1.5 0 0 0 7.5 18h9a1.5 1.5 0 0 0 1.5-1.5v-9A1.5 1.5 0 0 0 16.5 6zm-2 2A1.5 1.5 0 0 1 16 9.5v5a1.5 1.5 0 0 1-1.5 1.5h-5A1.5 1.5 0 0 1 8 14.5v-5A1.5 1.5 0 0 1 9.5 8h5zm0 1h-5a.5.5 0 0 0-.5.5v5a.5.5 0 0 0 .5.5h5a.5.5 0 0 0 .5-.5v-5a.5.5 0 0 0-.5-.5z"></path></svg>