<svg style="width: 100%;height: 100%;" xmlns="http://www.w3.org/2000/svg" viewBox="0 0 24 24"><path d="M21.6 2h-7.2c-.8 0-1.4.6-1.4 1.4V7c0 .3.2.5.5.5s.5-.2.5-.5V3.4c0-.2.2-.4.4-.4h7.2c.2 0 .4.2.4.4v17.2c0 .2-.2.4-.4.4h-.8c-.3 0-.5.2-.5.5s.2.5.5.5h.8c.8 0 1.4-.6 1.4-1.4V3.4c0-.8-.6-1.4-1.4-1.4z"></path><path d="M21.1 5.9v-.7c0-.7-.5-1.2-1.2-1.2h-.7c-.7 0-1.2.5-1.2 1.2v.7c0 .7.5 1.2 1.2 1.2h.7c.7 0 1.2-.5 1.2-1.2zm-1 0c0 .1-.1.2-.2.2h-.7c-.1 0-.2-.1-.2-.2v-.7c0-.1.1-.2.2-.2h.7c.1 0 .2.1.2.2v.7zM20.5 11.5c0-.3-.2-.5-.5-.5h-1c-.3 0-.5.2-.5.5s.2.5.5.5h1c.3 0 .5-.2.5-.5zM19 9c-.3 0-.5.2-.5.5s.2.5.5.5h1c.3 0 .5-.2.5-.5S20.3 9 20 9h-1zM18 17.3V10c-.1-1.2-1.1-2.2-2.3-2.2H4.3C3 7.9 2 8.8 2 10.1v7.2c-.3.3-1 1.3-1.7 2.4-.3.4-.3 1-.1 1.5.3.5.9.8 1.6.8h16.4c.8 0 1.4-.3 1.7-.9.2-.5.1-1-.2-1.4-.7-1-1.4-2-1.7-2.4zM4.3 8.9h11.4c.7 0 1.2.5 1.3 1.2V17H3v-6.9c0-.7.5-1.2 1.3-1.2zM19 20.7c-.1.2-.3.3-.8.3H1.8c-.4 0-.6-.1-.7-.3-.1-.1-.1-.3 0-.4.7-1 1.3-1.9 1.6-2.3h14.5c.3.4 1 1.3 1.7 2.3.1.1.1.3.1.4z"></path><path d="M11.5 19h-3c-.3 0-.5.2-.5.5s.2.5.5.5h3c.3 0 .5-.2.5-.5s-.2-.5-.5-.5z"></path></svg>