<svg style="width: 100%;height: 100%;" xmlns="http://www.w3.org/2000/svg" viewBox="0 0 24 24"><path fill="#757575" d="M8.084 6.712a.269.269 0 0 1 .025.022l.395.395.513-.514a.24.24 0 0 1 .034-.028l.5-.5a.255.255 0 0 1 .365 0l.007.006a.257.257 0 0 1 0 .366l-.795.796-.003.002-.246.247.33.33a.272.272 0 0 1 .008.008l.22.22a.27.27 0 0 1 .022.025l.464.464a.256.256 0 0 1 0 .366l-.006.006a.257.257 0 0 1-.366 0l-.466-.465a.237.237 0 0 1-.016-.015l-.565-.564-.473.473a.273.273 0 0 1-.006.006l-.566.565a.257.257 0 0 1-.366 0l-.007-.007a.257.257 0 0 1 0-.366l.32-.32a.271.271 0 0 1 .014-.014l.71-.713-.606-.606a.272.272 0 0 1-.006-.006l-.441-.442a.257.257 0 0 1 0-.366l.006-.006a.257.257 0 0 1 .366 0l.442.442a.272.272 0 0 1 .006.005l.187.188zM8 10h9a2 2 0 0 1 2 2v8h3V7a2 2 0 0 0-2-2H4a2 2 0 0 0-2 2v13h3v-8a2 2 0 0 1 2-2h1zm0 1H7a1 1 0 0 0-1 1v8h2v-9zm8 0v9h2v-8a1 1 0 0 0-1-1h-1zM4 4h16a3 3 0 0 1 3 3v14H1V7a3 3 0 0 1 3-3zm5 7v9h6v-9H9zm1.446-3.667c.097 0 .173.113.173.25 0 .138-.078.25-.173.25h-.654c-.095 0-.173-.112-.173-.25 0-.137.078-.25.173-.25h.654zm1.635.174l.576.722a.16.16 0 0 1 .036.126.193.193 0 0 1-.067.114.163.163 0 0 1-.107.036.167.167 0 0 1-.132-.067l-.613-.755h-.437v.648a.174.174 0 0 1-.173.174.174.174 0 0 1-.174-.174v-1.65c0-.096.079-.175.174-.175.095 0 .173.079.173.174v.654h.444l.612-.763a.16.16 0 0 1 .133-.066.18.18 0 0 1 .107.036.18.18 0 0 1 .024.246l-.576.72zm1.964-1.002c.212 0 .402.083.54.24.12.139.186.327.186.513v.513a.782.782 0 0 1-.185.512.698.698 0 0 1-.54.24h-.367a.698.698 0 0 1-.54-.24.795.795 0 0 1-.187-.512v-.513c0-.188.065-.374.186-.512a.698.698 0 0 1 .54-.241h.367zm-.752.746v.513a.38.38 0 0 0 .386.403h.366a.38.38 0 0 0 .385-.403V7.25a.38.38 0 0 0-.385-.403h-.366a.38.38 0 0 0-.386.403zm4.5-.506a.855.855 0 0 1 .207.512V8.34a.175.175 0 0 1-.174.174.175.175 0 0 1-.174-.174V7.257a.38.38 0 0 0-.386-.402h-.145a.38.38 0 0 0-.385.402V8.34a.175.175 0 0 1-.174.174.175.175 0 0 1-.174-.174V7.257a.38.38 0 0 0-.386-.402h-.145a.38.38 0 0 0-.385.402V8.34a.175.175 0 0 1-.174.174.175.175 0 0 1-.174-.174V7.257a.78.78 0 0 1 .186-.512.699.699 0 0 1 .54-.24h.139c.216 0 .402.083.54.24l.02.02.018-.02a.699.699 0 0 1 .54-.24h.146c.216 0 .402.083.54.24z"></path></svg>