<svg style="width: 100%;height: 100%;" xmlns="http://www.w3.org/2000/svg" viewBox="0 0 24 24"><path fill="#DB0054" d="M12 2c5.523 0 10 4.477 10 10s-4.477 10-10 10S2 17.523 2 12 6.477 2 12 2zm0 1a9 9 0 1 0 0 18 9 9 0 0 0 0-18zm2.31 4.336c.12 0 .226.044.318.132.092.088.138.2.138.336a.61.61 0 0 1-.096.324l-4.5 7.764c-.112.208-.268.312-.468.312a.447.447 0 0 1-.318-.132.445.445 0 0 1-.138-.336.61.61 0 0 1 .096-.324l4.488-7.764c.12-.208.28-.312.48-.312zm.636 3.576c.648 0 1.158.218 1.53.654.372.436.558 1.078.558 1.926 0 .848-.184 1.492-.552 1.932-.368.44-.88.66-1.536.66s-1.168-.218-1.536-.654c-.368-.436-.552-1.082-.552-1.938 0-.848.184-1.49.552-1.926.368-.436.88-.654 1.536-.654zm0 .816c-.352 0-.612.14-.78.42-.168.28-.252.728-.252 1.344 0 .616.084 1.066.252 1.35.168.284.428.426.78.426.352 0 .61-.142.774-.426.164-.284.246-.734.246-1.35 0-.608-.084-1.054-.252-1.338-.168-.284-.424-.426-.768-.426zM9.054 7.432c.656 0 1.168.218 1.536.654.368.436.552 1.078.552 1.926 0 .856-.184 1.502-.552 1.938-.368.436-.88.654-1.536.654-.648 0-1.156-.22-1.524-.66-.368-.44-.552-1.084-.552-1.932 0-.848.184-1.49.552-1.926.368-.436.876-.654 1.524-.654zm0 .828c-.352 0-.61.138-.774.414-.164.276-.246.722-.246 1.338 0 .616.082 1.066.246 1.35.164.284.422.426.774.426.352 0 .612-.142.78-.426.168-.284.252-.734.252-1.35 0-.608-.084-1.052-.252-1.332-.168-.28-.428-.42-.78-.42z"></path></svg>