<svg style="width: 100%;height: 100%;" xmlns="http://www.w3.org/2000/svg" viewBox="0 0 24 24"><path d="M16 16.5a.5.5 0 0 0-.5-.5h-7a.5.5 0 0 0-.5.5V18H4.5A1.5 1.5 0 0 1 3 16.5v-7A1.5 1.5 0 0 1 4.5 8h15A1.5 1.5 0 0 1 21 9.5v7a1.5 1.5 0 0 1-1.5 1.5H16v-1.5zm1 .5h2.5a.5.5 0 0 0 .5-.5v-7a.5.5 0 0 0-.5-.5h-15a.5.5 0 0 0-.5.5v7a.5.5 0 0 0 .5.5H7v-.5A1.5 1.5 0 0 1 8.5 15h7a1.5 1.5 0 0 1 1.5 1.5v.5zM7 9V4.5A1.5 1.5 0 0 1 8.5 3h7A1.5 1.5 0 0 1 17 4.5V9H7zm9-1V4.5a.5.5 0 0 0-.5-.5h-7a.5.5 0 0 0-.5.5V8h8zm-7.5 7h7a1.5 1.5 0 0 1 1.5 1.5v4a1.5 1.5 0 0 1-1.5 1.5h-7A1.5 1.5 0 0 1 7 20.5v-4A1.5 1.5 0 0 1 8.5 15zm0 1a.5.5 0 0 0-.5.5v4a.5.5 0 0 0 .5.5h7a.5.5 0 0 0 .5-.5v-4a.5.5 0 0 0-.5-.5h-7zm9.5-6a1 1 0 1 1 0 2 1 1 0 0 1 0-2zM9 20v-1h4v1H9zm0-2v-1h6v1H9z"></path></svg>