<svg style="width: 100%;height: 100%;" xmlns="http://www.w3.org/2000/svg" viewBox="0 0 24 24"><path d="M19.5 13a.5.5 0 0 1 .5.5v8a.5.5 0 0 1-.5.5h-15a.5.5 0 0 1-.5-.5v-8a.5.5 0 1 1 1 0V21h14v-7.5a.5.5 0 0 1 .5-.5zm-6.793 2.293a1 1 0 1 1-1.414 1.414 1 1 0 0 1 1.414-1.414zm1.768-1.768a.5.5 0 1 1-.707.707 2.5 2.5 0 0 0-3.536 0 .5.5 0 1 1-.707-.707 3.5 3.5 0 0 1 4.95 0zm1.768-1.768a.5.5 0 0 1-.707.707 5 5 0 0 0-7.072 0 .5.5 0 0 1-.707-.707 6 6 0 0 1 8.486 0zm-3.9-9.62l9.5 9a.5.5 0 1 1-.687.726L12 3.189l-9.156 8.674a.5.5 0 1 1-.688-.726l9.5-9a.5.5 0 0 1 .688 0z"></path></svg>