<svg style="width: 100%;height: 100%;" xmlns="http://www.w3.org/2000/svg" viewBox="0 0 24 24"><path d="M21.5 11.8v-1.4c0-.3-.2-.5-.5-.5v-.4c0-.8-.5-1.4-1.2-1.5-.5-.6-.8-1.3-.8-2 0-.3-.2-.5-.5-.5s-.5.2-.5.5c0 .7.2 1.4.5 2h-3.1c.4-.6.6-1.3.6-2 0-.3-.2-.5-.5-.5s-.5.2-.5.5c0 .7-.3 1.4-.8 2-.7.1-1.2.7-1.2 1.5v6c0 .8.5 1.4 1.2 1.5.5.7.8 1.3.8 2 0 .3.2.5.5.5s.5-.2.5-.5c0-.7-.2-1.4-.5-2h3.1c-.4.6-.5 1.3-.5 2 0 .3.2.5.5.5s.4-.2.4-.5c0-.7.3-1.4.8-2 .7-.1 1.2-.7 1.2-1.5v-.7c.3 0 .5-.2.5-.5v-.4c0-.3-.2-.5-.5-.5v-1.1c.3 0 .5-.2.5-.5zM20 15.5c0 .3-.2.5-.5.5h-5c-.3 0-.5-.2-.5-.5v-6c0-.3.2-.5.5-.5h5c.3 0 .5.2.5.5v6z"></path><path d="M13.5 17.5c-.3 0-.5.2-.5.5v2.5c0 .3-.2.5-.5.5h-9c-.3 0-.5-.2-.5-.5v-17c0-.3.2-.5.5-.5h9c.3 0 .5.2.5.5V7c0 .3.2.5.5.5s.5-.2.5-.5V3.5c0-.9-.6-1.5-1.5-1.5h-9C2.6 2 2 2.6 2 3.5v17c0 .9.6 1.5 1.5 1.5h9c.9 0 1.5-.6 1.5-1.5V18c0-.3-.2-.5-.5-.5z"></path><circle cx="8" cy="19" r="1"></circle><path d="M10 5.5c0-.3-.2-.5-.5-.5h-3c-.3 0-.5.2-.5.5s.2.5.5.5h3c.3 0 .5-.2.5-.5zM18.2 10.8L17 12.1l-.6-.6c-.2-.2-.5-.2-.7 0s-.2.5 0 .7l1 1c.1.1.2.1.4.1s.3 0 .4-.1l1.6-1.6c.2-.2.2-.5 0-.7s-.7-.2-.9-.1z"></path></svg>