<svg style="width: 100%;height: 100%;" xmlns="http://www.w3.org/2000/svg" viewBox="0 0 24 24"><path d="M11.46 19H5v1h14v-1h-7.54zm10.04-1h-19A2.5 2.5 0 0 1 0 15.5v-10A2.5 2.5 0 0 1 2.5 3h19A2.5 2.5 0 0 1 24 5.5v10a2.5 2.5 0 0 1-2.5 2.5zm0-1a1.5 1.5 0 0 0 1.5-1.5v-10A1.5 1.5 0 0 0 21.5 4h-19A1.5 1.5 0 0 0 1 5.5v10A1.5 1.5 0 0 0 2.5 17h19zM10 13.5v-6a.5.5 0 0 1 .757-.429l5 3a.5.5 0 0 1 0 .858l-5 3A.5.5 0 0 1 10 13.5zm4.528-3L11 8.383v4.234l3.528-2.117zM5 5v1H3.5a.5.5 0 0 0-.5.5V8H2V6.5A1.5 1.5 0 0 1 3.5 5H5zm14 11v-1h1.5a.5.5 0 0 0 .5-.5V13h1v1.5a1.5 1.5 0 0 1-1.5 1.5H19z"></path></svg>