<svg style="width: 100%;height: 100%;" xmlns="http://www.w3.org/2000/svg" viewBox="0 0 24 24"><path d="M9.946 3.23c.464-.307 3.644-.307 4.108 0 .402.267.449.884.302 2.177.218.077.431.166.64.265.81-1.018 1.28-1.422 1.753-1.325.545.11 2.794 2.36 2.905 2.904.096.473-.308.942-1.326 1.753.1.209.188.422.265.64 1.293-.147 1.91-.1 2.177.302.307.464.307 3.644 0 4.108-.267.402-.884.449-2.177.302a6.947 6.947 0 0 1-.265.64c1.018.81 1.422 1.28 1.326 1.753-.111.545-2.36 2.794-2.905 2.905-.473.096-.942-.308-1.753-1.326a6.947 6.947 0 0 1-.64.265c.147 1.293.1 1.91-.302 2.177-.464.307-3.644.307-4.108 0-.403-.267-.449-.884-.302-2.177a6.951 6.951 0 0 1-.64-.265c-.81 1.018-1.28 1.422-1.753 1.326-.545-.111-2.794-2.36-2.904-2.905-.097-.473.307-.942 1.325-1.753a6.953 6.953 0 0 1-.265-.64c-1.293.147-1.91.1-2.177-.302-.307-.464-.307-3.644 0-4.108.267-.403.884-.449 2.177-.302.077-.218.166-.431.265-.64-1.018-.81-1.422-1.28-1.325-1.753.11-.545 2.36-2.794 2.904-2.904.473-.097.942.307 1.753 1.325.209-.1.422-.188.64-.265-.147-1.293-.1-1.91.302-2.177zm.629 1.044c-.005.324.031.799.11 1.418a.5.5 0 0 1-.356.544 5.96 5.96 0 0 0-1.223.506.5.5 0 0 1-.637-.132c-.382-.494-.692-.856-.924-1.08a2.207 2.207 0 0 0-.173-.154c-.36.277-1.719 1.636-1.996 1.996.037.048.088.106.153.173.225.232.587.542 1.081.924a.5.5 0 0 1 .132.637 5.96 5.96 0 0 0-.506 1.223.5.5 0 0 1-.544.357c-.62-.08-1.094-.117-1.418-.111-.093.001-.17.006-.23.013-.059.451-.059 2.373 0 2.824.06.007.137.012.23.013.324.005.799-.031 1.418-.11a.5.5 0 0 1 .544.356c.123.425.292.835.506 1.223a.5.5 0 0 1-.132.637c-.494.382-.856.692-1.08.924a2.21 2.21 0 0 0-.154.173c.277.36 1.636 1.719 1.996 1.996.048-.037.106-.088.173-.153.232-.225.542-.587.924-1.081a.5.5 0 0 1 .637-.132c.388.214.798.383 1.223.506a.5.5 0 0 1 .357.544c-.08.62-.117 1.094-.111 1.418.001.093.006.17.013.23.451.059 2.373.059 2.824 0 .007-.06.012-.137.013-.23.005-.324-.031-.799-.11-1.418a.5.5 0 0 1 .356-.544 5.953 5.953 0 0 0 1.223-.506.5.5 0 0 1 .637.132c.382.494.692.856.924 1.08a2.2 2.2 0 0 0 .173.154c.36-.277 1.719-1.636 1.996-1.996a2.2 2.2 0 0 0-.153-.173c-.225-.232-.587-.542-1.081-.924a.5.5 0 0 1-.132-.637c.214-.388.383-.798.506-1.223a.5.5 0 0 1 .544-.357c.62.08 1.094.117 1.418.111.093-.001.17-.006.23-.013.059-.451.059-2.373 0-2.824a2.234 2.234 0 0 0-.23-.013c-.324-.005-.799.031-1.418.11a.5.5 0 0 1-.544-.356 5.953 5.953 0 0 0-.506-1.223.5.5 0 0 1 .132-.637c.494-.382.856-.692 1.08-.924a1.96 1.96 0 0 0 .154-.173c-.277-.36-1.636-1.719-1.996-1.996a2.21 2.21 0 0 0-.173.153c-.232.225-.542.587-.924 1.081a.5.5 0 0 1-.637.132 5.96 5.96 0 0 0-1.223-.506.5.5 0 0 1-.357-.544c.08-.62.117-1.094.111-1.418a2.233 2.233 0 0 0-.013-.23c-.451-.059-2.373-.059-2.824 0-.007.06-.012.137-.013.23zM12 8a4 4 0 1 1 0 8 4 4 0 0 1 0-8zm0 1a3 3 0 1 0 0 6 3 3 0 0 0 0-6z"></path></svg>