<svg style="width: 100%;height: 100%;" xmlns="http://www.w3.org/2000/svg" viewBox="0 0 24 24"><path d="M18.353 3C19.815 3 21 4.244 21 5.778V16.5c0 1.344-.792 2.243-2 2.5v2.5c0 .92-.829 1.5-1.706 1.5-.5 0-.97-.247-1.27-.667L13.175 19H5.5C4.038 19 3 18.034 3 16.5V5.778C3 4.244 4.185 3 5.647 3h12.706zm.047 1H5.6C4.716 4 4 4.756 4 5.688V16.5c0 .932.816 1.5 1.7 1.5h8c.168 0 .326.083.427.225l2.78 3.55c.1.142.259.225.426.225.295 0 .534-.252.534-.563l.1-2.875c0-.31.238-.562.533-.562.884 0 1.5-.568 1.5-1.5V5.687C20 4.756 19.284 4 18.4 4zM12 6l1.236 3.365L17 9.438l-3 2.152L15.09 15 12 12.965 8.91 15 10 11.59 7 9.438l3.764-.073L12 6z"></path></svg>