<svg style="width: 100%;height: 100%;" xmlns="http://www.w3.org/2000/svg" viewBox="0 0 24 24"><path fill-rule="evenodd" d="M8 3c0-.487.36-1 .938-1h6.124c.579 0 .938.513.938 1h2.5A1.5 1.5 0 0 1 20 4.5v16a1.5 1.5 0 0 1-1.5 1.5h-13A1.5 1.5 0 0 1 4 20.5v-16A1.5 1.5 0 0 1 5.5 3H8zm7 0H9v2h6V3zM5.5 4a.5.5 0 0 0-.5.5v16a.5.5 0 0 0 .5.5h13a.5.5 0 0 0 .5-.5v-16a.5.5 0 0 0-.5-.5H16v1c0 .487-.36 1-.938 1H8.939C8.358 6 8 5.487 8 5V4H5.5zM7 11.5a.5.5 0 0 1 .5-.5h9a.5.5 0 0 1 0 1h-9a.5.5 0 0 1-.5-.5zm0 3a.5.5 0 0 1 .5-.5h9a.5.5 0 0 1 0 1h-9a.5.5 0 0 1-.5-.5zm0 3a.5.5 0 0 1 .5-.5h9a.5.5 0 0 1 0 1h-9a.5.5 0 0 1-.5-.5z"></path></svg>