<svg style="width: 100%;height: 100%;" xmlns="http://www.w3.org/2000/svg" viewBox="0 0 24 24"><path fill-rule="evenodd" d="M17 4a3 3 0 1 0 0 6 3 3 0 0 0 0-6zm-2 3a2 2 0 1 1 4 0 2 2 0 0 1-4 0z"></path><path fill-rule="evenodd" d="M17 14.5l-.332.373h-.002l-.003-.003-.01-.01-.041-.037a18.947 18.947 0 0 1-.673-.655 21.205 21.205 0 0 1-1.585-1.817C13.22 10.884 12 8.86 12 6.864 12 4.164 14.253 2 17 2s5 2.163 5 4.864c0 1.996-1.22 4.02-2.355 5.487a21.205 21.205 0 0 1-2.257 2.472l-.04.037-.011.01-.004.003L17 14.5zM17 3c-2.224 0-4 1.744-4 3.864 0 1.64 1.03 3.434 2.146 4.876A20.225 20.225 0 0 0 17 13.814a20.225 20.225 0 0 0 1.855-2.074C19.97 10.298 21 8.504 21 6.864 21 4.744 19.224 3 17 3z"></path><path d="M17 14.5l.333.373a.501.501 0 0 1-.665 0L17 14.5z"></path><path d="M3 5.5a.5.5 0 0 1 .5-.5h7a.5.5 0 0 0 0-1h-7A1.5 1.5 0 0 0 2 5.5v13A1.5 1.5 0 0 0 3.5 20h16a1.5 1.5 0 0 0 1.5-1.5v-4a.5.5 0 0 0-1 0v4a.5.5 0 0 1-.5.5h-16a.5.5 0 0 1-.5-.5v-13z"></path><path d="M4.5 10a.5.5 0 0 0 0 1h4a.5.5 0 0 0 0-1h-4zM4 13.5a.5.5 0 0 1 .5-.5h6a.5.5 0 0 1 0 1h-6a.5.5 0 0 1-.5-.5zm.5 2.5a.5.5 0 0 0 0 1h8a.5.5 0 0 0 0-1h-8z"></path></svg>