<svg style="width: 100%;height: 100%;" xmlns="http://www.w3.org/2000/svg" viewBox="0 0 24 24"><path d="M12.5 11.941l2.882-1.441L12.5 9.059 9.618 10.5l2.882 1.441zM8 10.5c0-.178.092-.355.276-.447l4-2a.5.5 0 0 1 .448 0l4 2A.495.495 0 0 1 17 10.5V15a.5.5 0 0 1-.276.447l-4 2a.496.496 0 0 1-.448 0l-4-2A.5.5 0 0 1 8 15v-4.5zm5 2.309v3.382l3-1.5v-3.382l-3 1.5zm-4-1.5v3.382l3 1.5v-3.382l-3-1.5z"></path><path d="M4.418 5.507l3-.5a.5.5 0 0 1 .546.679l-1 2.5a.5.5 0 0 1-.818.168l-.659-.66A8.5 8.5 0 1 0 12.5 4a.5.5 0 0 1 0-1 9.5 9.5 0 1 1-7.73 3.977l-.624-.623a.5.5 0 0 1 .272-.847z"></path></svg>