<svg style="width: 100%;height: 100%;" xmlns="http://www.w3.org/2000/svg" viewBox="0 0 24 24"><path d="M12.5 3a9.5 9.5 0 1 1 0 19 9.5 9.5 0 0 1 0-19zm0 1a8.5 8.5 0 1 0 0 17 8.5 8.5 0 0 0 0-17zm.159 2c.147 0 .264.046.352.137a.517.517 0 0 1 .131.372v1.06c.488.045.957.16 1.408.343.452.184.833.435 1.146.757a.587.587 0 0 1 .235.467.513.513 0 0 1-.118.337c-.078.097-.168.145-.269.145-.12 0-.248-.05-.386-.151a4.709 4.709 0 0 0-1.18-.73c-.383-.155-.827-.233-1.333-.233-.7 0-1.254.16-1.664.481-.41.321-.614.757-.614 1.307 0 .385.113.693.338.921.226.23.504.406.836.53.33.124.786.26 1.367.406.671.165 1.212.33 1.622.496.409.164.757.415 1.042.749.285.335.428.782.428 1.341a2.39 2.39 0 0 1-.78 1.81c-.52.49-1.208.786-2.064.887v1.06a.516.516 0 0 1-.131.37.465.465 0 0 1-.352.138.465.465 0 0 1-.353-.138.515.515 0 0 1-.13-.37v-1.047a6.105 6.105 0 0 1-1.63-.33 3.793 3.793 0 0 1-1.339-.784.573.573 0 0 1-.221-.468c0-.128.037-.24.11-.337.074-.096.162-.144.263-.144.11 0 .243.05.4.15.92.643 1.845.964 2.776.964.726 0 1.293-.15 1.698-.454.405-.302.607-.734.607-1.293 0-.33-.103-.599-.31-.805a2.11 2.11 0 0 0-.787-.48 12.308 12.308 0 0 0-1.291-.366c-.7-.174-1.263-.348-1.691-.522a2.823 2.823 0 0 1-1.098-.798c-.304-.358-.456-.84-.456-1.445 0-.495.124-.942.373-1.341a2.79 2.79 0 0 1 1.042-.97c.447-.248.96-.399 1.54-.454v-1.06c0-.146.046-.267.138-.364A.458.458 0 0 1 12.659 6z"></path></svg>