<svg style="width: 100%;height: 100%;" xmlns="http://www.w3.org/2000/svg" viewBox="0 0 24 24"><path d="M12 19.57l6.904-7.052A3.832 3.832 0 0 0 20 9.814a3.833 3.833 0 0 0-1.096-2.704A3.634 3.634 0 0 0 16.286 6c-.99 0-1.916.392-2.62 1.11L12 8.812l-.714-.73-.952-.972A3.637 3.637 0 0 0 7.714 6c-.99 0-1.916.392-2.619 1.11A3.835 3.835 0 0 0 4 9.814c0 1.025.388 1.983 1.095 2.704L12 19.571zm0-12.187l.685-.7.267-.272A4.635 4.635 0 0 1 16.286 5c1.26 0 2.442.501 3.333 1.41A4.833 4.833 0 0 1 21 9.815c0 1.286-.49 2.495-1.381 3.404L12 21l-7.62-7.782A4.834 4.834 0 0 1 3 9.814c0-1.285.49-2.494 1.38-3.403A4.635 4.635 0 0 1 7.715 5c1.26 0 2.443.501 3.334 1.41l.252.258.7.715z"></path></svg>