<svg style="width: 100%;height: 100%;" xmlns="http://www.w3.org/2000/svg" viewBox="0 0 24 24"><path d="M12 3c2.631 0 4 1.977 4 5 0 1.542-.528 2.914-1.389 3.828.278.995 1.11 1.718 2.547 2.198 2.174.724 3.471 2.207 3.835 4.392a.5.5 0 0 1-.245.516C18.334 20.314 15.416 21 12 21c-3.416 0-6.334-.687-8.748-2.066a.5.5 0 0 1-.245-.516c.364-2.185 1.661-3.668 3.835-4.392 1.438-.48 2.269-1.203 2.55-2.198C8.528 10.914 8 9.542 8 8c0-3.023 1.369-5 4-5zm1.784 9.501l-.152.086A3.414 3.414 0 0 1 12 13c-.65 0-1.254-.18-1.784-.5-.465 1.123-1.498 1.954-3.058 2.474-1.708.57-2.725 1.643-3.097 3.265C6.254 19.41 8.898 20 12 20c3.102 0 5.746-.589 7.94-1.761-.373-1.622-1.39-2.695-3.098-3.265-1.56-.52-2.593-1.35-3.058-2.473zM12 4c-1.984 0-3 1.468-3 4 0 2.273 1.328 4 3 4s3-1.727 3-4c0-2.532-1.016-4-3-4z"></path></svg>